<?xml version="1.0" encoding="UTF-8"?>
<svg id="Layer_2" data-name="Layer 2" xmlns="http://www.w3.org/2000/svg" viewBox="0 0 1243.43 256">
  <defs>
    <style>
      .cls-1 {
        fill: #fff;
      }
    </style>
  </defs>
  <g id="Layer_1-2" data-name="Layer 1">
    <g>
      <polygon class="cls-1" points="0 201.14 129.91 73.14 129.91 36.57 92.79 0 371.17 0 371.17 91.43 315.5 146.29 222.7 146.29 222.7 201.14 167.03 256 167.03 128 204.14 91.43 296.94 91.43 315.5 73.14 315.5 54.86 185.59 54.86 185.59 91.43 74.23 201.14 0 201.14"/>
      <polygon class="cls-1" points="315.5 201.14 315.5 164.57 408.29 73.14 408.29 54.86 575.32 54.86 575.32 73.14 556.76 91.43 445.41 91.43 426.85 109.71 501.08 109.71 501.08 128 482.52 146.29 389.73 146.29 371.17 164.57 482.52 164.57 482.52 182.86 463.97 201.14 315.5 201.14"/>
      <polygon class="cls-1" points="501.08 201.14 501.08 164.57 593.88 73.14 593.88 54.86 760.9 54.86 760.9 73.14 742.35 91.43 630.99 91.43 612.43 109.71 686.67 109.71 686.67 128 668.11 146.29 575.32 146.29 519.64 201.14 501.08 201.14"/>
      <polygon class="cls-1" points="835.14 201.14 835.14 164.57 927.93 73.14 927.93 54.86 1094.96 54.86 1094.96 73.14 1076.4 91.43 965.05 91.43 946.49 109.71 1020.72 109.71 1020.72 128 1002.17 146.29 909.37 146.29 890.81 164.57 1002.17 164.57 1002.17 182.86 983.61 201.14 835.14 201.14"/>
      <polygon class="cls-1" points="686.67 201.14 686.67 164.57 798.02 54.86 835.14 54.86 835.14 73.14 742.35 164.57 816.58 164.57 816.58 182.86 798.02 201.14 686.67 201.14"/>
      <g>
        <polygon class="cls-1" points="1243.43 54.86 1206.31 54.86 1076.4 182.86 1076.4 201.14 1113.52 201.14 1187.75 128 1243.43 73.14 1243.43 54.86"/>
        <polygon class="cls-1" points="1132.08 109.71 1150.64 91.43 1150.64 54.86 1132.08 54.86 1094.96 91.43 1094.96 146.29 1113.52 128 1132.08 109.71"/>
        <polygon class="cls-1" points="1169.19 164.57 1169.19 201.14 1187.75 201.14 1206.31 182.86 1206.31 146.29 1187.75 128 1187.75 146.29 1169.19 164.57"/>
      </g>
    </g>
  </g>
</svg>