<?xml version="1.0" encoding="UTF-8"?>
<svg id="Layer_2" data-name="Layer 2" xmlns="http://www.w3.org/2000/svg" viewBox="0 0 233.14 48">
  <defs>
    <style>
      .cls-1 {
        fill: #fff;
      }
    </style>
  </defs>
  <g id="Layer_1-2" data-name="Layer 1">
    <g>
      <polygon class="cls-1" points="0 37.71 24.36 13.71 24.36 6.86 17.4 0 69.59 0 69.59 17.14 59.16 27.43 41.76 27.43 41.76 37.71 31.32 48 31.32 24 38.28 17.14 55.68 17.14 59.16 13.71 59.16 10.29 34.8 10.29 34.8 17.14 13.92 37.71 0 37.71"/>
      <polygon class="cls-1" points="59.16 37.71 59.16 30.86 76.55 13.71 76.55 10.29 107.87 10.29 107.87 13.71 104.39 17.14 83.51 17.14 80.03 20.57 93.95 20.57 93.95 24 90.47 27.43 73.07 27.43 69.59 30.86 90.47 30.86 90.47 34.29 86.99 37.71 59.16 37.71"/>
      <polygon class="cls-1" points="93.95 37.71 93.95 30.86 111.35 13.71 111.35 10.29 142.67 10.29 142.67 13.71 139.19 17.14 118.31 17.14 114.83 20.57 128.75 20.57 128.75 24 125.27 27.43 107.87 27.43 97.43 37.71 93.95 37.71"/>
      <polygon class="cls-1" points="156.59 37.71 156.59 30.86 173.99 13.71 173.99 10.29 205.3 10.29 205.3 13.71 201.83 17.14 180.95 17.14 177.47 20.57 191.39 20.57 191.39 24 187.91 27.43 170.51 27.43 167.03 30.86 187.91 30.86 187.91 34.29 184.43 37.71 156.59 37.71"/>
      <polygon class="cls-1" points="128.75 37.71 128.75 30.86 149.63 10.29 156.59 10.29 156.59 13.71 139.19 30.86 153.11 30.86 153.11 34.29 149.63 37.71 128.75 37.71"/>
      <g>
        <polygon class="cls-1" points="233.14 10.29 226.18 10.29 201.83 34.29 201.83 37.71 208.78 37.71 222.7 24 233.14 13.71 233.14 10.29"/>
        <polygon class="cls-1" points="212.26 20.57 215.74 17.14 215.74 10.29 212.26 10.29 205.3 17.14 205.3 27.43 208.78 24 212.26 20.57"/>
        <polygon class="cls-1" points="219.22 30.86 219.22 37.71 222.7 37.71 226.18 34.29 226.18 27.43 222.7 24 222.7 27.43 219.22 30.86"/>
      </g>
    </g>
  </g>
</svg>