<?xml version="1.0" encoding="UTF-8"?>
<svg id="Layer_2" data-name="Layer 2" xmlns="http://www.w3.org/2000/svg" viewBox="0 0 77.71 16">
  <defs>
    <style>
      .cls-1 {
        fill: #fff;
      }
    </style>
  </defs>
  <g id="Layer_1-2" data-name="Layer 1">
    <g>
      <polygon class="cls-1" points="0 12.57 8.12 4.57 8.12 2.29 5.8 0 23.2 0 23.2 5.71 19.72 9.14 13.92 9.14 13.92 12.57 10.44 16 10.44 8 12.76 5.71 18.56 5.71 19.72 4.57 19.72 3.43 11.6 3.43 11.6 5.71 4.64 12.57 0 12.57"/>
      <polygon class="cls-1" points="19.72 12.57 19.72 10.29 25.52 4.57 25.52 3.43 35.96 3.43 35.96 4.57 34.8 5.71 27.84 5.71 26.68 6.86 31.32 6.86 31.32 8 30.16 9.14 24.36 9.14 23.2 10.29 30.16 10.29 30.16 11.43 29 12.57 19.72 12.57"/>
      <polygon class="cls-1" points="31.32 12.57 31.32 10.29 37.12 4.57 37.12 3.43 47.56 3.43 47.56 4.57 46.4 5.71 39.44 5.71 38.28 6.86 42.92 6.86 42.92 8 41.76 9.14 35.96 9.14 32.48 12.57 31.32 12.57"/>
      <polygon class="cls-1" points="52.2 12.57 52.2 10.29 58 4.57 58 3.43 68.43 3.43 68.43 4.57 67.28 5.71 60.32 5.71 59.16 6.86 63.8 6.86 63.8 8 62.64 9.14 56.84 9.14 55.68 10.29 62.64 10.29 62.64 11.43 61.48 12.57 52.2 12.57"/>
      <polygon class="cls-1" points="42.92 12.57 42.92 10.29 49.88 3.43 52.2 3.43 52.2 4.57 46.4 10.29 51.04 10.29 51.04 11.43 49.88 12.57 42.92 12.57"/>
      <g>
        <polygon class="cls-1" points="77.71 3.43 75.39 3.43 67.28 11.43 67.28 12.57 69.59 12.57 74.23 8 77.71 4.57 77.71 3.43"/>
        <polygon class="cls-1" points="70.75 6.86 71.91 5.71 71.91 3.43 70.75 3.43 68.43 5.71 68.43 9.14 69.59 8 70.75 6.86"/>
        <polygon class="cls-1" points="73.07 10.29 73.07 12.57 74.23 12.57 75.39 11.43 75.39 9.14 74.23 8 74.23 9.14 73.07 10.29"/>
      </g>
    </g>
  </g>
</svg>