<?xml version="1.0" encoding="UTF-8"?>
<svg id="Layer_2" data-name="Layer 2" xmlns="http://www.w3.org/2000/svg" viewBox="0 0 310.86 64">
  <defs>
    <style>
      .cls-1 {
        fill: #fff;
      }
    </style>
  </defs>
  <g id="Layer_1-2" data-name="Layer 1">
    <g>
      <polygon class="cls-1" points="0 50.29 32.48 18.29 32.48 9.14 23.2 0 92.79 0 92.79 22.86 78.87 36.57 55.68 36.57 55.68 50.29 41.76 64 41.76 32 51.04 22.86 74.23 22.86 78.87 18.29 78.87 13.71 46.4 13.71 46.4 22.86 18.56 50.29 0 50.29"/>
      <polygon class="cls-1" points="78.87 50.29 78.87 41.14 102.07 18.29 102.07 13.71 143.83 13.71 143.83 18.29 139.19 22.86 111.35 22.86 106.71 27.43 125.27 27.43 125.27 32 120.63 36.57 97.43 36.57 92.79 41.14 120.63 41.14 120.63 45.71 115.99 50.29 78.87 50.29"/>
      <polygon class="cls-1" points="125.27 50.29 125.27 41.14 148.47 18.29 148.47 13.71 190.23 13.71 190.23 18.29 185.59 22.86 157.75 22.86 153.11 27.43 171.67 27.43 171.67 32 167.03 36.57 143.83 36.57 129.91 50.29 125.27 50.29"/>
      <polygon class="cls-1" points="208.78 50.29 208.78 41.14 231.98 18.29 231.98 13.71 273.74 13.71 273.74 18.29 269.1 22.86 241.26 22.86 236.62 27.43 255.18 27.43 255.18 32 250.54 36.57 227.34 36.57 222.7 41.14 250.54 41.14 250.54 45.71 245.9 50.29 208.78 50.29"/>
      <polygon class="cls-1" points="171.67 50.29 171.67 41.14 199.51 13.71 208.78 13.71 208.78 18.29 185.59 41.14 204.14 41.14 204.14 45.71 199.51 50.29 171.67 50.29"/>
      <g>
        <polygon class="cls-1" points="310.86 13.71 301.58 13.71 269.1 45.71 269.1 50.29 278.38 50.29 296.94 32 310.86 18.29 310.86 13.71"/>
        <polygon class="cls-1" points="283.02 27.43 287.66 22.86 287.66 13.71 283.02 13.71 273.74 22.86 273.74 36.57 278.38 32 283.02 27.43"/>
        <polygon class="cls-1" points="292.3 41.14 292.3 50.29 296.94 50.29 301.58 45.71 301.58 36.57 296.94 32 296.94 36.57 292.3 41.14"/>
      </g>
    </g>
  </g>
</svg>