<?xml version="1.0" encoding="UTF-8"?>
<svg id="Layer_2" data-name="Layer 2" xmlns="http://www.w3.org/2000/svg" viewBox="0 0 116.57 24">
  <defs>
    <style>
      .cls-1 {
        fill: #fff;
      }
    </style>
  </defs>
  <g id="Layer_1-2" data-name="Layer 1">
    <g>
      <polygon class="cls-1" points="0 18.86 12.18 6.86 12.18 3.43 8.7 0 34.8 0 34.8 8.57 29.58 13.71 20.88 13.71 20.88 18.86 15.66 24 15.66 12 19.14 8.57 27.84 8.57 29.58 6.86 29.58 5.14 17.4 5.14 17.4 8.57 6.96 18.86 0 18.86"/>
      <polygon class="cls-1" points="29.58 18.86 29.58 15.43 38.28 6.86 38.28 5.14 53.94 5.14 53.94 6.86 52.2 8.57 41.76 8.57 40.02 10.29 46.98 10.29 46.98 12 45.24 13.71 36.54 13.71 34.8 15.43 45.24 15.43 45.24 17.14 43.5 18.86 29.58 18.86"/>
      <polygon class="cls-1" points="46.98 18.86 46.98 15.43 55.68 6.86 55.68 5.14 71.33 5.14 71.33 6.86 69.59 8.57 59.16 8.57 57.42 10.29 64.38 10.29 64.38 12 62.64 13.71 53.94 13.71 48.72 18.86 46.98 18.86"/>
      <polygon class="cls-1" points="78.29 18.86 78.29 15.43 86.99 6.86 86.99 5.14 102.65 5.14 102.65 6.86 100.91 8.57 90.47 8.57 88.73 10.29 95.69 10.29 95.69 12 93.95 13.71 85.25 13.71 83.51 15.43 93.95 15.43 93.95 17.14 92.21 18.86 78.29 18.86"/>
      <polygon class="cls-1" points="64.38 18.86 64.38 15.43 74.81 5.14 78.29 5.14 78.29 6.86 69.59 15.43 76.55 15.43 76.55 17.14 74.81 18.86 64.38 18.86"/>
      <g>
        <polygon class="cls-1" points="116.57 5.14 113.09 5.14 100.91 17.14 100.91 18.86 104.39 18.86 111.35 12 116.57 6.86 116.57 5.14"/>
        <polygon class="cls-1" points="106.13 10.29 107.87 8.57 107.87 5.14 106.13 5.14 102.65 8.57 102.65 13.71 104.39 12 106.13 10.29"/>
        <polygon class="cls-1" points="109.61 15.43 109.61 18.86 111.35 18.86 113.09 17.14 113.09 13.71 111.35 12 111.35 13.71 109.61 15.43"/>
      </g>
    </g>
  </g>
</svg>