<?xml version="1.0" encoding="UTF-8"?>
<svg id="Layer_2" data-name="Layer 2" xmlns="http://www.w3.org/2000/svg" viewBox="0 0 155.43 32">
  <defs>
    <style>
      .cls-1 {
        fill: #fff;
      }
    </style>
  </defs>
  <g id="Layer_1-2" data-name="Layer 1">
    <g>
      <polygon class="cls-1" points="0 25.14 16.24 9.14 16.24 4.57 11.6 0 46.4 0 46.4 11.43 39.44 18.29 27.84 18.29 27.84 25.14 20.88 32 20.88 16 25.52 11.43 37.12 11.43 39.44 9.14 39.44 6.86 23.2 6.86 23.2 11.43 9.28 25.14 0 25.14"/>
      <polygon class="cls-1" points="39.44 25.14 39.44 20.57 51.04 9.14 51.04 6.86 71.91 6.86 71.91 9.14 69.59 11.43 55.68 11.43 53.36 13.71 62.64 13.71 62.64 16 60.32 18.29 48.72 18.29 46.4 20.57 60.32 20.57 60.32 22.86 58 25.14 39.44 25.14"/>
      <polygon class="cls-1" points="62.64 25.14 62.64 20.57 74.23 9.14 74.23 6.86 95.11 6.86 95.11 9.14 92.79 11.43 78.87 11.43 76.55 13.71 85.83 13.71 85.83 16 83.51 18.29 71.91 18.29 64.96 25.14 62.64 25.14"/>
      <polygon class="cls-1" points="104.39 25.14 104.39 20.57 115.99 9.14 115.99 6.86 136.87 6.86 136.87 9.14 134.55 11.43 120.63 11.43 118.31 13.71 127.59 13.71 127.59 16 125.27 18.29 113.67 18.29 111.35 20.57 125.27 20.57 125.27 22.86 122.95 25.14 104.39 25.14"/>
      <polygon class="cls-1" points="85.83 25.14 85.83 20.57 99.75 6.86 104.39 6.86 104.39 9.14 92.79 20.57 102.07 20.57 102.07 22.86 99.75 25.14 85.83 25.14"/>
      <g>
        <polygon class="cls-1" points="155.43 6.86 150.79 6.86 134.55 22.86 134.55 25.14 139.19 25.14 148.47 16 155.43 9.14 155.43 6.86"/>
        <polygon class="cls-1" points="141.51 13.71 143.83 11.43 143.83 6.86 141.51 6.86 136.87 11.43 136.87 18.29 139.19 16 141.51 13.71"/>
        <polygon class="cls-1" points="146.15 20.57 146.15 25.14 148.47 25.14 150.79 22.86 150.79 18.29 148.47 16 148.47 18.29 146.15 20.57"/>
      </g>
    </g>
  </g>
</svg>