<?xml version="1.0" encoding="UTF-8"?>
<svg id="Layer_2" data-name="Layer 2" xmlns="http://www.w3.org/2000/svg" viewBox="0 0 621.71 128">
  <defs>
    <style>
      .cls-1 {
        fill: #fff;
      }
    </style>
  </defs>
  <g id="Layer_1-2" data-name="Layer 1">
    <g>
      <polygon class="cls-1" points="0 100.57 64.96 36.57 64.96 18.29 46.4 0 185.59 0 185.59 45.71 157.75 73.14 111.35 73.14 111.35 100.57 83.51 128 83.51 64 102.07 45.71 148.47 45.71 157.75 36.57 157.75 27.43 92.79 27.43 92.79 45.71 37.12 100.57 0 100.57"/>
      <polygon class="cls-1" points="157.75 100.57 157.75 82.29 204.14 36.57 204.14 27.43 287.66 27.43 287.66 36.57 278.38 45.71 222.7 45.71 213.42 54.86 250.54 54.86 250.54 64 241.26 73.14 194.87 73.14 185.59 82.29 241.26 82.29 241.26 91.43 231.98 100.57 157.75 100.57"/>
      <polygon class="cls-1" points="250.54 100.57 250.54 82.29 296.94 36.57 296.94 27.43 380.45 27.43 380.45 36.57 371.17 45.71 315.5 45.71 306.22 54.86 343.33 54.86 343.33 64 334.06 73.14 287.66 73.14 259.82 100.57 250.54 100.57"/>
      <polygon class="cls-1" points="417.57 100.57 417.57 82.29 463.97 36.57 463.97 27.43 547.48 27.43 547.48 36.57 538.2 45.71 482.52 45.71 473.25 54.86 510.36 54.86 510.36 64 501.08 73.14 454.69 73.14 445.41 82.29 501.08 82.29 501.08 91.43 491.8 100.57 417.57 100.57"/>
      <polygon class="cls-1" points="343.33 100.57 343.33 82.29 399.01 27.43 417.57 27.43 417.57 36.57 371.17 82.29 408.29 82.29 408.29 91.43 399.01 100.57 343.33 100.57"/>
      <g>
        <polygon class="cls-1" points="621.71 27.43 603.16 27.43 538.2 91.43 538.2 100.57 556.76 100.57 593.88 64 621.71 36.57 621.71 27.43"/>
        <polygon class="cls-1" points="566.04 54.86 575.32 45.71 575.32 27.43 566.04 27.43 547.48 45.71 547.48 73.14 556.76 64 566.04 54.86"/>
        <polygon class="cls-1" points="584.6 82.29 584.6 100.57 593.88 100.57 603.16 91.43 603.16 73.14 593.88 64 593.88 73.14 584.6 82.29"/>
      </g>
    </g>
  </g>
</svg>